<mxfile host="app.diagrams.net" modified="2023-05-09T12:49:06.023Z" agent="Mozilla/5.0 (X11; Linux x86_64; rv:109.0) Gecko/20100101 Firefox/112.0" etag="4wRt_Ucjo0T9M-XHg-k2" version="21.2.6" type="github">
  <diagram name="Page-1" id="Wfg3XRnyIgDn9pwfVtJL">
    <mxGraphModel dx="1195" dy="658" grid="1" gridSize="10" guides="1" tooltips="1" connect="1" arrows="1" fold="1" page="1" pageScale="1" pageWidth="1654" pageHeight="2336" math="0" shadow="0">
      <root>
        <mxCell id="0" />
        <mxCell id="1" parent="0" />
        <mxCell id="kDWH9W8BgqDENdvICi3f-140" value="" style="rounded=0;whiteSpace=wrap;html=1;fillColor=none;dashed=1;" parent="1" vertex="1">
          <mxGeometry x="269" y="1174.5" width="271" height="110" as="geometry" />
        </mxCell>
        <mxCell id="kDWH9W8BgqDENdvICi3f-99" value="" style="rounded=0;whiteSpace=wrap;html=1;fillColor=none;dashed=1;" parent="1" vertex="1">
          <mxGeometry x="370" y="900" width="451" height="110" as="geometry" />
        </mxCell>
        <mxCell id="kDWH9W8BgqDENdvICi3f-77" value="" style="rounded=0;whiteSpace=wrap;html=1;fillColor=none;dashed=1;" parent="1" vertex="1">
          <mxGeometry x="483.4" y="704.5" width="418.2" height="110" as="geometry" />
        </mxCell>
        <mxCell id="kDWH9W8BgqDENdvICi3f-78" value="" style="sketch=0;points=[[0,0,0],[0.25,0,0],[0.5,0,0],[0.75,0,0],[1,0,0],[0,1,0],[0.25,1,0],[0.5,1,0],[0.75,1,0],[1,1,0],[0,0.25,0],[0,0.5,0],[0,0.75,0],[1,0.25,0],[1,0.5,0],[1,0.75,0]];outlineConnect=0;fontColor=#232F3E;gradientColor=#F54749;gradientDirection=north;fillColor=#C7131F;strokeColor=#ffffff;dashed=0;verticalLabelPosition=bottom;verticalAlign=top;align=center;html=1;fontSize=12;fontStyle=0;aspect=fixed;shape=mxgraph.aws4.resourceIcon;resIcon=mxgraph.aws4.network_firewall;" parent="1" vertex="1">
          <mxGeometry x="543.4" y="724.5" width="80" height="80" as="geometry" />
        </mxCell>
        <mxCell id="kDWH9W8BgqDENdvICi3f-79" value="" style="sketch=0;points=[[0,0,0],[0.25,0,0],[0.5,0,0],[0.75,0,0],[1,0,0],[0,1,0],[0.25,1,0],[0.5,1,0],[0.75,1,0],[1,1,0],[0,0.25,0],[0,0.5,0],[0,0.75,0],[1,0.25,0],[1,0.5,0],[1,0.75,0]];outlineConnect=0;fontColor=#232F3E;gradientColor=#F54749;gradientDirection=north;fillColor=#C7131F;strokeColor=#ffffff;dashed=0;verticalLabelPosition=bottom;verticalAlign=top;align=center;html=1;fontSize=12;fontStyle=0;aspect=fixed;shape=mxgraph.aws4.resourceIcon;resIcon=mxgraph.aws4.network_firewall;" parent="1" vertex="1">
          <mxGeometry x="753.4" y="724.5" width="78" height="78" as="geometry" />
        </mxCell>
        <mxCell id="kDWH9W8BgqDENdvICi3f-80" value="" style="shape=link;html=1;rounded=0;fontSize=20;entryX=0;entryY=0.5;entryDx=0;entryDy=0;entryPerimeter=0;" parent="1" target="kDWH9W8BgqDENdvICi3f-79" edge="1">
          <mxGeometry width="100" relative="1" as="geometry">
            <mxPoint x="621.4" y="763" as="sourcePoint" />
            <mxPoint x="721.4" y="763" as="targetPoint" />
          </mxGeometry>
        </mxCell>
        <mxCell id="kDWH9W8BgqDENdvICi3f-81" value="Cluster link" style="text;html=1;strokeColor=none;fillColor=none;align=center;verticalAlign=middle;whiteSpace=wrap;rounded=0;fontSize=10;" parent="1" vertex="1">
          <mxGeometry x="649.4" y="740.5" width="70" height="30" as="geometry" />
        </mxCell>
        <mxCell id="kDWH9W8BgqDENdvICi3f-82" value="&lt;div&gt;Firebox M390&lt;/div&gt;" style="text;html=1;strokeColor=none;fillColor=none;align=center;verticalAlign=middle;whiteSpace=wrap;rounded=0;fontSize=8;" parent="1" vertex="1">
          <mxGeometry x="483.4" y="744.5" width="60" height="30" as="geometry" />
        </mxCell>
        <mxCell id="kDWH9W8BgqDENdvICi3f-83" value="&lt;div&gt;Firebox M390&lt;/div&gt;" style="text;html=1;strokeColor=none;fillColor=none;align=center;verticalAlign=middle;whiteSpace=wrap;rounded=0;fontSize=8;" parent="1" vertex="1">
          <mxGeometry x="831.4000000000002" y="744.5" width="60" height="30" as="geometry" />
        </mxCell>
        <mxCell id="kDWH9W8BgqDENdvICi3f-84" value="Watchguard Firewalls" style="text;html=1;strokeColor=none;fillColor=none;align=center;verticalAlign=middle;whiteSpace=wrap;rounded=0;" parent="1" vertex="1">
          <mxGeometry x="353.1" y="744.5" width="130.3" height="30" as="geometry" />
        </mxCell>
        <mxCell id="kDWH9W8BgqDENdvICi3f-85" value="" style="image;points=[];aspect=fixed;html=1;align=center;shadow=0;dashed=0;image=img/lib/allied_telesis/switch/Switch_24_port_L3.svg;" parent="1" vertex="1">
          <mxGeometry x="640.9" y="534.5" width="74.4" height="51" as="geometry" />
        </mxCell>
        <mxCell id="kDWH9W8BgqDENdvICi3f-86" value="ITSA" style="text;html=1;strokeColor=none;fillColor=none;align=center;verticalAlign=middle;whiteSpace=wrap;rounded=0;" parent="1" vertex="1">
          <mxGeometry x="655.45" y="504.5" width="45.3" height="30" as="geometry" />
        </mxCell>
        <mxCell id="kDWH9W8BgqDENdvICi3f-87" value="" style="endArrow=none;html=1;rounded=0;entryX=0.122;entryY=0.696;entryDx=0;entryDy=0;entryPerimeter=0;exitX=0.5;exitY=0;exitDx=0;exitDy=0;exitPerimeter=0;" parent="1" source="kDWH9W8BgqDENdvICi3f-78" target="kDWH9W8BgqDENdvICi3f-85" edge="1">
          <mxGeometry width="50" height="50" relative="1" as="geometry">
            <mxPoint x="555.3" y="734.5" as="sourcePoint" />
            <mxPoint x="605.3" y="684.5" as="targetPoint" />
          </mxGeometry>
        </mxCell>
        <mxCell id="kDWH9W8BgqDENdvICi3f-88" value="" style="endArrow=none;html=1;rounded=0;entryX=0.969;entryY=0.845;entryDx=0;entryDy=0;entryPerimeter=0;exitX=0.5;exitY=0;exitDx=0;exitDy=0;exitPerimeter=0;" parent="1" source="kDWH9W8BgqDENdvICi3f-79" target="kDWH9W8BgqDENdvICi3f-85" edge="1">
          <mxGeometry width="50" height="50" relative="1" as="geometry">
            <mxPoint x="792" y="740" as="sourcePoint" />
            <mxPoint x="862" y="570" as="targetPoint" />
          </mxGeometry>
        </mxCell>
        <mxCell id="kDWH9W8BgqDENdvICi3f-89" value="" style="image;points=[];aspect=fixed;html=1;align=center;shadow=0;dashed=0;image=img/lib/allied_telesis/switch/Switch_24_port_L3.svg;" parent="1" vertex="1">
          <mxGeometry x="383.29999999999995" y="929" width="74.4" height="51" as="geometry" />
        </mxCell>
        <mxCell id="kDWH9W8BgqDENdvICi3f-90" value="&lt;div&gt;01&lt;/div&gt;" style="text;html=1;strokeColor=none;fillColor=none;align=center;verticalAlign=middle;whiteSpace=wrap;rounded=0;fontSize=8;" parent="1" vertex="1">
          <mxGeometry x="390.4999999999999" y="980" width="60" height="30" as="geometry" />
        </mxCell>
        <mxCell id="kDWH9W8BgqDENdvICi3f-91" value="" style="image;points=[];aspect=fixed;html=1;align=center;shadow=0;dashed=0;image=img/lib/allied_telesis/switch/Switch_24_port_L3.svg;" parent="1" vertex="1">
          <mxGeometry x="466.4000000000001" y="929" width="74.4" height="51" as="geometry" />
        </mxCell>
        <mxCell id="kDWH9W8BgqDENdvICi3f-92" value="02" style="text;html=1;strokeColor=none;fillColor=none;align=center;verticalAlign=middle;whiteSpace=wrap;rounded=0;fontSize=8;" parent="1" vertex="1">
          <mxGeometry x="473.5999999999999" y="980" width="60" height="30" as="geometry" />
        </mxCell>
        <mxCell id="kDWH9W8BgqDENdvICi3f-93" value="" style="image;points=[];aspect=fixed;html=1;align=center;shadow=0;dashed=0;image=img/lib/allied_telesis/switch/Switch_24_port_L3.svg;" parent="1" vertex="1">
          <mxGeometry x="559.8000000000001" y="929" width="74.4" height="51" as="geometry" />
        </mxCell>
        <mxCell id="kDWH9W8BgqDENdvICi3f-94" value="03" style="text;html=1;strokeColor=none;fillColor=none;align=center;verticalAlign=middle;whiteSpace=wrap;rounded=0;fontSize=8;" parent="1" vertex="1">
          <mxGeometry x="566.9999999999999" y="980" width="60" height="30" as="geometry" />
        </mxCell>
        <mxCell id="kDWH9W8BgqDENdvICi3f-95" value="" style="image;points=[];aspect=fixed;html=1;align=center;shadow=0;dashed=0;image=img/lib/allied_telesis/switch/Switch_24_port_L3.svg;" parent="1" vertex="1">
          <mxGeometry x="645.5000000000001" y="929" width="74.4" height="51" as="geometry" />
        </mxCell>
        <mxCell id="kDWH9W8BgqDENdvICi3f-96" value="04" style="text;html=1;strokeColor=none;fillColor=none;align=center;verticalAlign=middle;whiteSpace=wrap;rounded=0;fontSize=8;" parent="1" vertex="1">
          <mxGeometry x="652.6999999999999" y="980" width="60" height="30" as="geometry" />
        </mxCell>
        <mxCell id="kDWH9W8BgqDENdvICi3f-97" value="" style="image;points=[];aspect=fixed;html=1;align=center;shadow=0;dashed=0;image=img/lib/allied_telesis/switch/Switch_24_port_L3.svg;" parent="1" vertex="1">
          <mxGeometry x="733.3000000000001" y="929" width="74.4" height="51" as="geometry" />
        </mxCell>
        <mxCell id="kDWH9W8BgqDENdvICi3f-98" value="05" style="text;html=1;strokeColor=none;fillColor=none;align=center;verticalAlign=middle;whiteSpace=wrap;rounded=0;fontSize=8;" parent="1" vertex="1">
          <mxGeometry x="740.4999999999999" y="980" width="60" height="30" as="geometry" />
        </mxCell>
        <mxCell id="kDWH9W8BgqDENdvICi3f-100" value="Switch Stack LAN" style="text;html=1;strokeColor=none;fillColor=none;align=center;verticalAlign=middle;whiteSpace=wrap;rounded=0;" parent="1" vertex="1">
          <mxGeometry x="261" y="940" width="109" height="30" as="geometry" />
        </mxCell>
        <mxCell id="kDWH9W8BgqDENdvICi3f-105" value="" style="endArrow=none;html=1;rounded=0;exitX=0.215;exitY=0.043;exitDx=0;exitDy=0;exitPerimeter=0;" parent="1" source="kDWH9W8BgqDENdvICi3f-89" edge="1">
          <mxGeometry width="50" height="50" relative="1" as="geometry">
            <mxPoint x="510.3" y="870.5" as="sourcePoint" />
            <mxPoint x="560.3" y="820.5" as="targetPoint" />
            <Array as="points" />
          </mxGeometry>
        </mxCell>
        <mxCell id="kDWH9W8BgqDENdvICi3f-107" value="" style="endArrow=none;html=1;rounded=0;exitX=0.71;exitY=0.02;exitDx=0;exitDy=0;exitPerimeter=0;" parent="1" source="kDWH9W8BgqDENdvICi3f-89" target="kDWH9W8BgqDENdvICi3f-79" edge="1">
          <mxGeometry width="50" height="50" relative="1" as="geometry">
            <mxPoint x="528.3" y="918.5" as="sourcePoint" />
            <mxPoint x="595.5999999999999" y="829" as="targetPoint" />
            <Array as="points" />
          </mxGeometry>
        </mxCell>
        <mxCell id="kDWH9W8BgqDENdvICi3f-142" value="" style="edgeStyle=orthogonalEdgeStyle;rounded=0;orthogonalLoop=1;jettySize=auto;html=1;entryX=0.729;entryY=-0.025;entryDx=0;entryDy=0;entryPerimeter=0;startArrow=oval;startFill=1;endArrow=oval;endFill=1;" parent="1" source="kDWH9W8BgqDENdvICi3f-127" target="kDWH9W8BgqDENdvICi3f-99" edge="1">
          <mxGeometry relative="1" as="geometry">
            <Array as="points">
              <mxPoint x="1025.1" y="880" />
              <mxPoint x="699.1" y="880" />
            </Array>
          </mxGeometry>
        </mxCell>
        <mxCell id="kDWH9W8BgqDENdvICi3f-127" value="" style="image;points=[];aspect=fixed;html=1;align=center;shadow=0;dashed=0;image=img/lib/allied_telesis/switch/Switch_24_port_L3.svg;" parent="1" vertex="1">
          <mxGeometry x="987.7" y="929" width="74.4" height="51" as="geometry" />
        </mxCell>
        <mxCell id="kDWH9W8BgqDENdvICi3f-128" value="Ubiquiti" style="text;html=1;strokeColor=none;fillColor=none;align=center;verticalAlign=middle;whiteSpace=wrap;rounded=0;fontSize=8;" parent="1" vertex="1">
          <mxGeometry x="994.8999999999999" y="980" width="60" height="30" as="geometry" />
        </mxCell>
        <mxCell id="kDWH9W8BgqDENdvICi3f-132" value="" style="sketch=0;points=[[0.015,0.015,0],[0.985,0.015,0],[0.985,0.985,0],[0.015,0.985,0],[0.25,0,0],[0.5,0,0],[0.75,0,0],[1,0.25,0],[1,0.5,0],[1,0.75,0],[0.75,1,0],[0.5,1,0],[0.25,1,0],[0,0.75,0],[0,0.5,0],[0,0.25,0]];verticalLabelPosition=bottom;html=1;verticalAlign=top;aspect=fixed;align=center;pointerEvents=1;shape=mxgraph.cisco19.rect;prIcon=hypervisor;fillColor=#FAFAFA;strokeColor=#005073;" parent="1" vertex="1">
          <mxGeometry x="288.89999999999986" y="1194.5" width="50" height="65" as="geometry" />
        </mxCell>
        <mxCell id="kDWH9W8BgqDENdvICi3f-133" value="CompXen1" style="text;html=1;strokeColor=none;fillColor=none;align=center;verticalAlign=middle;whiteSpace=wrap;rounded=0;fontSize=8;" parent="1" vertex="1">
          <mxGeometry x="283.89999999999986" y="1254.5" width="60" height="30" as="geometry" />
        </mxCell>
        <mxCell id="kDWH9W8BgqDENdvICi3f-134" value="" style="sketch=0;points=[[0.015,0.015,0],[0.985,0.015,0],[0.985,0.985,0],[0.015,0.985,0],[0.25,0,0],[0.5,0,0],[0.75,0,0],[1,0.25,0],[1,0.5,0],[1,0.75,0],[0.75,1,0],[0.5,1,0],[0.25,1,0],[0,0.75,0],[0,0.5,0],[0,0.25,0]];verticalLabelPosition=bottom;html=1;verticalAlign=top;aspect=fixed;align=center;pointerEvents=1;shape=mxgraph.cisco19.rect;prIcon=hypervisor;fillColor=#FAFAFA;strokeColor=#005073;" parent="1" vertex="1">
          <mxGeometry x="348.89999999999986" y="1194.5" width="50" height="65" as="geometry" />
        </mxCell>
        <mxCell id="kDWH9W8BgqDENdvICi3f-135" value="CompXen2" style="text;html=1;strokeColor=none;fillColor=none;align=center;verticalAlign=middle;whiteSpace=wrap;rounded=0;fontSize=8;" parent="1" vertex="1">
          <mxGeometry x="343.89999999999986" y="1254.5" width="60" height="30" as="geometry" />
        </mxCell>
        <mxCell id="kDWH9W8BgqDENdvICi3f-136" value="" style="sketch=0;points=[[0.015,0.015,0],[0.985,0.015,0],[0.985,0.985,0],[0.015,0.985,0],[0.25,0,0],[0.5,0,0],[0.75,0,0],[1,0.25,0],[1,0.5,0],[1,0.75,0],[0.75,1,0],[0.5,1,0],[0.25,1,0],[0,0.75,0],[0,0.5,0],[0,0.25,0]];verticalLabelPosition=bottom;html=1;verticalAlign=top;aspect=fixed;align=center;pointerEvents=1;shape=mxgraph.cisco19.rect;prIcon=hypervisor;fillColor=#FAFAFA;strokeColor=#005073;" parent="1" vertex="1">
          <mxGeometry x="408.89999999999986" y="1194.5" width="50" height="65" as="geometry" />
        </mxCell>
        <mxCell id="kDWH9W8BgqDENdvICi3f-137" value="CompXen3" style="text;html=1;strokeColor=none;fillColor=none;align=center;verticalAlign=middle;whiteSpace=wrap;rounded=0;fontSize=8;" parent="1" vertex="1">
          <mxGeometry x="403.89999999999986" y="1254.5" width="60" height="30" as="geometry" />
        </mxCell>
        <mxCell id="kDWH9W8BgqDENdvICi3f-138" value="" style="sketch=0;points=[[0.015,0.015,0],[0.985,0.015,0],[0.985,0.985,0],[0.015,0.985,0],[0.25,0,0],[0.5,0,0],[0.75,0,0],[1,0.25,0],[1,0.5,0],[1,0.75,0],[0.75,1,0],[0.5,1,0],[0.25,1,0],[0,0.75,0],[0,0.5,0],[0,0.25,0]];verticalLabelPosition=bottom;html=1;verticalAlign=top;aspect=fixed;align=center;pointerEvents=1;shape=mxgraph.cisco19.rect;prIcon=hypervisor;fillColor=#FAFAFA;strokeColor=#005073;" parent="1" vertex="1">
          <mxGeometry x="468.89999999999986" y="1194.5" width="50" height="65" as="geometry" />
        </mxCell>
        <mxCell id="kDWH9W8BgqDENdvICi3f-139" value="CompXen4" style="text;html=1;strokeColor=none;fillColor=none;align=center;verticalAlign=middle;whiteSpace=wrap;rounded=0;fontSize=8;" parent="1" vertex="1">
          <mxGeometry x="463.89999999999986" y="1254.5" width="60" height="30" as="geometry" />
        </mxCell>
        <mxCell id="kDWH9W8BgqDENdvICi3f-144" style="edgeStyle=orthogonalEdgeStyle;rounded=0;orthogonalLoop=1;jettySize=auto;html=1;exitX=0.5;exitY=0;exitDx=0;exitDy=0;entryX=0.394;entryY=1.025;entryDx=0;entryDy=0;entryPerimeter=0;startArrow=oval;startFill=1;endArrow=oval;endFill=1;" parent="1" source="kDWH9W8BgqDENdvICi3f-140" target="kDWH9W8BgqDENdvICi3f-99" edge="1">
          <mxGeometry relative="1" as="geometry" />
        </mxCell>
        <mxCell id="kDWH9W8BgqDENdvICi3f-141" value="Xen Cluster" style="text;html=1;strokeColor=none;fillColor=none;align=center;verticalAlign=middle;whiteSpace=wrap;rounded=0;" parent="1" vertex="1">
          <mxGeometry x="190" y="1212" width="79" height="30" as="geometry" />
        </mxCell>
        <mxCell id="kDWH9W8BgqDENdvICi3f-161" value="&lt;div&gt;217.67.214.154&lt;/div&gt;&lt;div&gt;217.67.214.155&lt;br&gt;&lt;/div&gt;" style="text;html=1;strokeColor=none;fillColor=none;align=center;verticalAlign=middle;whiteSpace=wrap;rounded=0;fontSize=10;" parent="1" vertex="1">
          <mxGeometry x="633.8" y="710.5" width="99.1" height="30" as="geometry" />
        </mxCell>
        <mxCell id="7yxVdLlIOz4UHGMku_4_-1" value="" style="verticalLabelPosition=bottom;html=1;verticalAlign=top;align=center;strokeColor=none;fillColor=#00BEF2;shape=mxgraph.azure.virtual_machine;" vertex="1" parent="1">
          <mxGeometry x="270.45" y="1400" width="50" height="40" as="geometry" />
        </mxCell>
        <mxCell id="7yxVdLlIOz4UHGMku_4_-2" value="" style="verticalLabelPosition=bottom;html=1;verticalAlign=top;align=center;strokeColor=none;fillColor=#00BEF2;shape=mxgraph.azure.virtual_machine;" vertex="1" parent="1">
          <mxGeometry x="475.7" y="1400" width="50" height="40" as="geometry" />
        </mxCell>
        <mxCell id="7yxVdLlIOz4UHGMku_4_-4" value="" style="endArrow=oval;html=1;rounded=0;exitX=0.5;exitY=0;exitDx=0;exitDy=0;exitPerimeter=0;entryX=0.358;entryY=0.994;entryDx=0;entryDy=0;entryPerimeter=0;startArrow=oval;startFill=1;endFill=1;" edge="1" parent="1" source="7yxVdLlIOz4UHGMku_4_-1" target="kDWH9W8BgqDENdvICi3f-140">
          <mxGeometry width="50" height="50" relative="1" as="geometry">
            <mxPoint x="320" y="1350" as="sourcePoint" />
            <mxPoint x="370" y="1300" as="targetPoint" />
          </mxGeometry>
        </mxCell>
        <mxCell id="7yxVdLlIOz4UHGMku_4_-5" value="" style="endArrow=oval;html=1;rounded=0;exitX=0.5;exitY=0;exitDx=0;exitDy=0;exitPerimeter=0;entryX=0.603;entryY=1.005;entryDx=0;entryDy=0;entryPerimeter=0;endFill=1;startArrow=oval;startFill=1;" edge="1" parent="1" source="7yxVdLlIOz4UHGMku_4_-2" target="kDWH9W8BgqDENdvICi3f-140">
          <mxGeometry width="50" height="50" relative="1" as="geometry">
            <mxPoint x="503.4" y="1375" as="sourcePoint" />
            <mxPoint x="543.4" y="1294" as="targetPoint" />
          </mxGeometry>
        </mxCell>
        <mxCell id="7yxVdLlIOz4UHGMku_4_-6" value="radius" style="text;html=1;strokeColor=none;fillColor=none;align=center;verticalAlign=middle;whiteSpace=wrap;rounded=0;fontSize=8;" vertex="1" parent="1">
          <mxGeometry x="477.3" y="1445" width="46.8" height="20" as="geometry" />
        </mxCell>
        <mxCell id="7yxVdLlIOz4UHGMku_4_-7" value="AD" style="text;html=1;strokeColor=none;fillColor=none;align=center;verticalAlign=middle;whiteSpace=wrap;rounded=0;fontSize=8;" vertex="1" parent="1">
          <mxGeometry x="282.4" y="1440" width="26.1" height="30" as="geometry" />
        </mxCell>
        <mxCell id="7yxVdLlIOz4UHGMku_4_-9" value="10.0.1.140" style="text;html=1;strokeColor=none;fillColor=none;align=center;verticalAlign=middle;whiteSpace=wrap;rounded=0;fontSize=8;" vertex="1" parent="1">
          <mxGeometry x="249.99999999999997" y="1370" width="50" height="30" as="geometry" />
        </mxCell>
        <mxCell id="7yxVdLlIOz4UHGMku_4_-10" value="10.0.1.68" style="text;html=1;strokeColor=none;fillColor=none;align=center;verticalAlign=middle;whiteSpace=wrap;rounded=0;fontSize=8;" vertex="1" parent="1">
          <mxGeometry x="493.4" y="1370" width="50" height="30" as="geometry" />
        </mxCell>
        <mxCell id="7yxVdLlIOz4UHGMku_4_-11" value="" style="endArrow=none;html=1;rounded=0;exitX=1;exitY=0.5;exitDx=0;exitDy=0;exitPerimeter=0;entryX=0;entryY=0.5;entryDx=0;entryDy=0;entryPerimeter=0;dashed=1;" edge="1" parent="1" source="7yxVdLlIOz4UHGMku_4_-1" target="7yxVdLlIOz4UHGMku_4_-2">
          <mxGeometry width="50" height="50" relative="1" as="geometry">
            <mxPoint x="340.5" y="1430" as="sourcePoint" />
            <mxPoint x="390.5" y="1380" as="targetPoint" />
          </mxGeometry>
        </mxCell>
        <mxCell id="7yxVdLlIOz4UHGMku_4_-12" value="" style="points=[[0.03,0.36,0],[0.18,0,0],[0.5,0.34,0],[0.82,0,0],[0.97,0.36,0],[1,0.67,0],[0.975,0.975,0],[0.5,1,0],[0.025,0.975,0],[0,0.67,0]];verticalLabelPosition=bottom;sketch=0;html=1;verticalAlign=top;aspect=fixed;align=center;pointerEvents=1;shape=mxgraph.cisco19.wireless_access_point;fillColor=#005073;strokeColor=none;" vertex="1" parent="1">
          <mxGeometry x="1200" y="814.5" width="50" height="50" as="geometry" />
        </mxCell>
        <mxCell id="7yxVdLlIOz4UHGMku_4_-13" value="" style="points=[[0.03,0.36,0],[0.18,0,0],[0.5,0.34,0],[0.82,0,0],[0.97,0.36,0],[1,0.67,0],[0.975,0.975,0],[0.5,1,0],[0.025,0.975,0],[0,0.67,0]];verticalLabelPosition=bottom;sketch=0;html=1;verticalAlign=top;aspect=fixed;align=center;pointerEvents=1;shape=mxgraph.cisco19.wireless_access_point;fillColor=#005073;strokeColor=none;" vertex="1" parent="1">
          <mxGeometry x="1200" y="884.5" width="50" height="50" as="geometry" />
        </mxCell>
        <mxCell id="7yxVdLlIOz4UHGMku_4_-14" value="" style="points=[[0.03,0.36,0],[0.18,0,0],[0.5,0.34,0],[0.82,0,0],[0.97,0.36,0],[1,0.67,0],[0.975,0.975,0],[0.5,1,0],[0.025,0.975,0],[0,0.67,0]];verticalLabelPosition=bottom;sketch=0;html=1;verticalAlign=top;aspect=fixed;align=center;pointerEvents=1;shape=mxgraph.cisco19.wireless_access_point;fillColor=#005073;strokeColor=none;" vertex="1" parent="1">
          <mxGeometry x="1200" y="964.5" width="50" height="50" as="geometry" />
        </mxCell>
        <mxCell id="7yxVdLlIOz4UHGMku_4_-15" value="" style="points=[[0.03,0.36,0],[0.18,0,0],[0.5,0.34,0],[0.82,0,0],[0.97,0.36,0],[1,0.67,0],[0.975,0.975,0],[0.5,1,0],[0.025,0.975,0],[0,0.67,0]];verticalLabelPosition=bottom;sketch=0;html=1;verticalAlign=top;aspect=fixed;align=center;pointerEvents=1;shape=mxgraph.cisco19.wireless_access_point;fillColor=#005073;strokeColor=none;" vertex="1" parent="1">
          <mxGeometry x="1200" y="1044.5" width="50" height="50" as="geometry" />
        </mxCell>
        <mxCell id="7yxVdLlIOz4UHGMku_4_-16" value="10.1.0.51" style="text;html=1;strokeColor=none;fillColor=none;align=center;verticalAlign=middle;whiteSpace=wrap;rounded=0;fontSize=8;" vertex="1" parent="1">
          <mxGeometry x="1250" y="834.5" width="50" height="30" as="geometry" />
        </mxCell>
        <mxCell id="7yxVdLlIOz4UHGMku_4_-17" value="10.1.0.52" style="text;html=1;strokeColor=none;fillColor=none;align=center;verticalAlign=middle;whiteSpace=wrap;rounded=0;fontSize=8;" vertex="1" parent="1">
          <mxGeometry x="1250" y="904.5" width="50" height="30" as="geometry" />
        </mxCell>
        <mxCell id="7yxVdLlIOz4UHGMku_4_-18" value="10.1.0.53" style="text;html=1;strokeColor=none;fillColor=none;align=center;verticalAlign=middle;whiteSpace=wrap;rounded=0;fontSize=8;" vertex="1" parent="1">
          <mxGeometry x="1250" y="984.5" width="50" height="30" as="geometry" />
        </mxCell>
        <mxCell id="7yxVdLlIOz4UHGMku_4_-19" value="10.1.0.54" style="text;html=1;strokeColor=none;fillColor=none;align=center;verticalAlign=middle;whiteSpace=wrap;rounded=0;fontSize=8;" vertex="1" parent="1">
          <mxGeometry x="1250" y="1064.5" width="50" height="30" as="geometry" />
        </mxCell>
      </root>
    </mxGraphModel>
  </diagram>
</mxfile>
